<svg width="1892" height="1892" viewBox="0 0 1892 1892" fill="none" xmlns="http://www.w3.org/2000/svg">
<g clip-path="url(#clip0_35_2)">
<g clip-path="url(#clip1_35_2)">
<path d="M521.892 934.163C601.041 902.774 676.237 899.24 720.921 905.475" stroke="black" stroke-width="41.78" stroke-miterlimit="1.5" stroke-linecap="round" stroke-linejoin="round"/>
<path d="M789.236 888.164C903.772 844.655 968.441 861.781 987.925 864.407" stroke="black" stroke-width="41.78" stroke-miterlimit="1.5" stroke-linecap="round" stroke-linejoin="round"/>
<path d="M524.507 952.208C526.652 990.464 532.022 1091.18 645.782 1096.97C711.894 1100.34 759.127 1012.98 727.257 922.18" stroke="black" stroke-width="41.78" stroke-miterlimit="1.5" stroke-linecap="round" stroke-linejoin="round"/>
<path d="M782.19 892.891C773.574 890.693 787.256 1075.26 904.014 1055.87C993.59 1041 1011.61 917.195 982.922 870.596" stroke="black" stroke-width="41.78" stroke-miterlimit="1.5" stroke-linecap="round" stroke-linejoin="round"/>
<path d="M996.175 863.101C1033.93 871.452 1092.29 888.056 1117.79 891.242" stroke="black" stroke-width="41.78" stroke-miterlimit="1.5" stroke-linecap="round" stroke-linejoin="round"/>
<path d="M748.147 958.038C748.623 958.458 776.926 955.857 779.422 955.628" stroke="black" stroke-width="41.78" stroke-miterlimit="1.5" stroke-linecap="round" stroke-linejoin="round"/>
<path fill-rule="evenodd" clip-rule="evenodd" d="M535.025 939.667C520.533 962.256 551.781 1101.25 629.648 1093C701.057 1085.44 703.547 1074.67 721.661 1005.3C732.062 965.472 718.185 922.764 715.336 919.691C694.091 896.831 628.492 914.491 546.228 933.038" fill="black"/>
<path fill-rule="evenodd" clip-rule="evenodd" d="M797.323 893.574C752.535 938.943 833.289 1126.84 946.829 1030.52C982.1 1000.6 1014.54 904.059 981.094 879.538C934.284 845.199 854.191 886.677 832.487 894.82" fill="black"/>
<path fill-rule="evenodd" clip-rule="evenodd" d="M543.446 949.229C542.521 955.427 542.205 979.522 562.505 1029.18C575.949 1062.07 615.296 1084.78 619.732 1086.44C573.655 1057.64 555.427 1023.31 548.85 950.484C547.948 940.495 633.127 922.941 662.865 920.074C643.055 915.184 565.357 937.351 556.623 939.865C552.003 941.194 547.26 942.707 545.756 944.506C543.749 946.906 543.977 943.809 543.446 949.229Z" fill="white"/>
<path fill-rule="evenodd" clip-rule="evenodd" d="M796.776 910.392C801.747 1002.03 826.66 1039.94 878.396 1050.65C849.259 1039.07 802.596 1026.61 802.512 903.138C821.168 889.44 905.561 873.811 916.407 875.335C904.226 872.259 825.377 888.101 811.222 891.651C802.296 893.891 801.451 895.463 797.035 902.092" fill="white"/>
<g opacity="0.42">
<path fill-rule="evenodd" clip-rule="evenodd" d="M556.095 953.818C590.908 996.924 609.207 1021.71 667.18 1083.37C670.944 1087.37 692.106 1070.29 694.002 1068.76C686.871 1063.06 662.885 1043.9 610.304 991.187C588.945 969.781 587.362 972.133 567.512 949.962C565.9 950.702 564.047 950.817 562.435 951.556C561.935 951.786 562.435 951.556 556.389 954.837" fill="white"/>
<path fill-rule="evenodd" clip-rule="evenodd" d="M584.222 944.097C649.103 1004.73 645.865 1007.39 704.646 1060.72C706.311 1057.19 707.975 1053.67 709.639 1050.14C657.979 1005.06 659.285 1004.14 609.429 956.744C588.452 936.804 585.639 943.879 584.153 944.962" fill="white"/>
<path fill-rule="evenodd" clip-rule="evenodd" d="M812.537 915.222C819.397 926.554 866.504 1004.32 909.079 1049.78C924.908 1045.21 925.521 1047.3 938.846 1036.73C848.047 943.384 849.648 942.139 824.73 909.639L811.896 917.698" fill="white"/>
<path fill-rule="evenodd" clip-rule="evenodd" d="M835.388 903.738C842.525 915.465 895.348 972.729 942.954 1028.36C945.603 1025.15 948.263 1021.93 950.922 1018.72C867.074 936.722 872.862 931.473 841.791 901.336C838.931 902.637 836.062 903.939 833.202 905.24" fill="white"/>
</g>
</g>
</g>
<defs>
<clipPath id="clip0_35_2">
<rect width="1892" height="1892" fill="white"/>
</clipPath>
<clipPath id="clip1_35_2">
<rect width="638" height="280" fill="white" transform="translate(501 838)"/>
</clipPath>
</defs>
</svg>
